<?xml version="1.0" encoding="utf-8"?>
<!-- Generator: Adobe Illustrator 16.0.0, SVG Export Plug-In . SVG Version: 6.00 Build 0)  -->
<!DOCTYPE svg PUBLIC "-//W3C//DTD SVG 1.1//EN" "http://www.w3.org/Graphics/SVG/1.1/DTD/svg11.dtd">
<svg version="1.1" id="Layer_1" xmlns="http://www.w3.org/2000/svg" xmlns:xlink="http://www.w3.org/1999/xlink" x="0px" y="0px"
	 width="1200px" height="226px" viewBox="0 0 1200 226" enable-background="new 0 0 1200 226" xml:space="preserve">
<g>
	<path fill="#D1D3D4" d="M89.03,35.647c0.826,0,1.652,0,2.478,0c1.147,0.069,2.277,0.221,3.326,0.408
		c7.349,1.311,12.623,4.58,17.287,8.659c5.303,4.638,9.436,10.371,12.925,16.723c0.035,0.063,0.114,0.279,0.188,0.344
		c0.13,0.115,0.106,0.072,0.251,0.095c0.983,0.149,1.971,0.15,2.917,0.251c2.938,0.311,5.609,0.694,8.22,1.286
		c10.318,2.34,18.646,6.732,24.126,13.993c3.675,4.869,6.128,11.095,5.741,19.608c-0.177,3.914-1.042,7.445-2.102,10.604
		c-1.077,3.21-2.37,6.065-3.858,8.848c-0.042,0.081-0.104,0.183-0.125,0.25c-0.077,0.236,0.157,0.484,0.314,0.785
		c2.717,5.237,5.137,11.142,5.71,18.32c0.703,8.827-1.898,15.217-5.428,20.05c-6.298,8.622-16.67,13.436-29.554,15.311
		c-1.854,0.27-3.797,0.351-5.835,0.596c-0.21,0.024-0.226-0.006-0.345,0.095c-0.076,0.063-0.089,0.159-0.157,0.28
		c-3.582,6.521-7.871,12.309-13.333,17.101c-2.656,2.329-5.715,4.405-9.225,5.992c-3.524,1.595-7.681,2.76-12.455,2.76
		c-2.5,0-4.644-0.364-6.714-0.878c-6.055-1.502-10.829-4.55-14.776-8.063c-5.155-4.59-9.071-9.818-12.612-15.938
		c-0.183-0.315-0.466-1.005-0.69-1.224c-0.158-0.152-0.256-0.108-0.534-0.125c-7.786-0.463-14.849-2.108-20.706-4.707
		c-5.92-2.625-10.768-6.198-14.4-11.012c-1.823-2.416-3.321-5.125-4.298-8.406c-0.957-3.221-1.599-7.074-1.286-11.297
		c0.557-7.529,2.749-13.102,5.49-18.353c0.181-0.347,0.645-1.038,0.565-1.287c-0.107-0.333-0.385-0.666-0.565-1.004
		c-0.563-1.062-1.057-2.18-1.537-3.262c-1.981-4.469-3.517-9.167-3.953-15.185c-0.307-4.237,0.313-8.118,1.286-11.326
		c0.999-3.294,2.542-5.958,4.361-8.408c3.607-4.857,8.53-8.409,14.495-11.012c5.55-2.422,12.043-3.94,19.357-4.55
		c0.5-0.042,1.08,0.022,1.506-0.093c0.236-0.064,0.227-0.161,0.345-0.377c3.473-6.321,7.717-12.151,12.958-16.753
		C73.783,40.006,79.741,36.453,89.03,35.647z M123.07,61.217c-3.362-6.348-7.383-12.121-12.424-16.754
		c-2.563-2.356-5.477-4.537-8.91-6.149c-3.373-1.584-7.522-2.837-12.455-2.604c-1.175,0.055-2.336,0.178-3.388,0.345
		c-1.032,0.163-1.991,0.408-2.949,0.69c-5.56,1.638-9.836,4.661-13.585,8.22c-4.812,4.567-8.663,10.156-11.891,16.252
		c-0.092,0.172-0.228,0.356-0.22,0.564c12.617-0.41,23.332,1.619,33.036,4.33c9.682-2.723,20.404-4.735,33.005-4.33
		C123.297,61.574,123.161,61.388,123.07,61.217z M48.496,86.189c0.154,0.015,0.316-0.171,0.471-0.283
		c10.744-7.742,23.096-13.88,36.896-18.51c-8.866-2.272-18.294-3.98-29.523-3.89C52.973,70.316,50.432,77.95,48.496,86.189z
		 M94.677,67.428c7.07,2.231,13.638,5.128,19.891,8.22c4.696,2.322,9.094,5.027,13.334,7.75c1.334,0.857,2.632,1.839,3.89,2.698
		c0.057,0.039,0.167,0.122,0.251,0.094c-1.953-8.233-4.454-15.917-7.875-22.683C112.96,63.437,103.483,65.098,94.677,67.428z
		 M44.763,89.076c0.287-0.225,0.784-0.564,0.878-0.753c0.101-0.203,0.119-0.554,0.188-0.848c1.837-7.737,4.146-14.704,7.185-21.145
		c0.365-0.775,0.847-1.688,1.192-2.479c0.181-0.414,0.034-0.257-0.251-0.251c-3.803,0.08-7.532,0.593-10.98,1.287
		c-10.218,2.055-18.434,6.25-23.624,13.24c-3.413,4.596-5.754,11.057-4.864,19.263c0.789,7.256,3.529,12.888,6.463,18.102
		C27.1,104.891,35.371,96.43,44.763,89.076z M126.239,63.664c3.642,7.104,6.424,15.045,8.471,23.781
		c0.072,0.306,0.084,0.67,0.188,0.879c0.103,0.206,0.578,0.487,0.878,0.721c9.433,7.347,17.69,15.989,23.844,26.448
		c2.907-5.226,5.632-10.919,6.463-18.166c0.453-3.954,0.08-7.909-0.878-11.074c-2.859-9.45-9.582-15.063-18.354-18.636
		c-5.883-2.396-12.845-3.714-20.612-4.047C126.189,63.577,126.217,63.638,126.239,63.664z M88.497,65.734
		c-0.787,1.272-1.53,2.863-2.322,4.235c-14.5,4.897-27.165,11.633-38.432,19.765c-0.369,2.027-0.73,4.026-1.035,6.118
		c-0.299,2.056-0.547,4.151-0.785,6.306c-1.173,10.644-0.856,23.271,0.471,33.382c0.272,2.077,0.661,4.106,0.94,6.147
		c0.027,0.194-0.343,0.699-0.47,0.91c-0.522,0.873-1.021,1.631-1.506,2.447c-9.649-7.458-18.118-16.102-24.439-26.888
		c-2.916,5.229-5.632,10.931-6.463,18.196c-0.94,8.217,1.606,14.802,4.988,19.295c7.036,9.347,19.372,13.648,34.887,14.433
		c-3.23-6.423-5.948-13.524-7.812-21.209c0.764,0.021,1.61-0.042,2.322,0.03c1.908,7.684,4.307,14.871,7.53,21.24
		c11.208,0.071,20.685-1.591,29.491-3.92c-13.167-4.315-24.965-10.195-35.201-17.352c1.008,0,2.205,0,3.231,0
		c0.34,0,0.999-0.084,1.161,0c0.676,0.352,1.319,0.826,1.977,1.225c10.011,6.059,20.892,11.135,33.193,14.9c0.031,0,0.062,0,0.093,0
		c12.651-3.951,23.914-9.075,34.134-15.467c0.447-0.278,0.773-0.6,1.224-0.629c1.395-0.082,3.063-0.064,4.423-0.155
		c-10.393,7.249-22.18,13.104-35.42,17.508c8.873,2.274,18.313,3.981,29.553,3.89c3.15-6.513,5.629-13.695,7.529-21.459
		c0.78-0.007,1.651-0.086,2.353-0.063c-1.858,7.58-4.522,14.59-7.624,20.861c-0.089,0.182-0.254,0.375-0.219,0.598
		c7.752-0.339,14.704-1.654,20.581-4.049c5.83-2.373,10.835-5.715,14.275-10.383c3.362-4.563,5.899-11.123,4.958-19.326
		c-0.833-7.244-3.545-12.979-6.495-18.166c-6.264,10.791-14.727,19.388-24.345,26.824c-0.67-1.1-1.398-2.138-2.071-3.231
		c1.515-7.875,2.196-16.833,2.196-26.165c0-9.306-1.104-17.991-2.572-25.789c-12.272-8.979-26.414-16.255-42.668-21.145
		C89.591,67.672,89.038,66.709,88.497,65.734z M44.888,91.962c-0.001-0.019-0.005-0.037-0.031-0.031
		c-8.968,7.042-17.014,15.007-23.123,24.91c4.573,7.417,10.34,13.754,16.596,19.452c1.954,1.779,4.077,3.535,6.149,5.145
		c0.106,0.084,0.246,0.231,0.408,0.221C41.868,126.938,41.885,106.654,44.888,91.962z M135.682,91.962
		c-0.001-0.033-0.04-0.024-0.03,0.032c1.421,7.415,2.291,16.05,2.29,24.847c-0.001,8.788-0.878,17.431-2.29,24.847
		c8.972-6.91,17.039-15.002,23.153-24.877C152.661,106.962,144.687,98.948,135.682,91.962z M92.137,168.073
		c-0.618-0.168-1.242-0.404-1.852-0.503c-0.206-0.033-0.693,0.166-1.003,0.252c-9.534,2.611-19.799,4.414-32.032,4.048
		c-0.008,0.206,0.128,0.392,0.22,0.563c1.606,3.032,3.347,5.916,5.271,8.598c4.115,5.732,9,10.755,15.561,14.055
		c3.309,1.663,7.17,2.855,11.953,2.854c4.792,0,8.611-1.2,11.953-2.854c3.311-1.637,6.193-3.748,8.691-6.118
		c4.909-4.659,8.85-10.294,12.172-16.501c0.109-0.203,0.239-0.445,0.22-0.597C111.45,172.18,101.334,170.592,92.137,168.073z"/>
	<path fill="#ED1C24" d="M97.407,84.244c-5.783,0-11.566,0-17.35,0c-0.035-0.184,0.111-0.324,0.189-0.47
		c1.29-2.436,2.639-4.924,3.952-7.403c1.421-2.684,2.885-5.371,4.298-8C91.481,73.626,94.518,78.998,97.407,84.244z"/>
	<path fill="#1C75BC" d="M94.207,116.777c-3.331,0.059-6.65,0.128-10.009,0.158c0.029-10.083,0.098-20.128,0.157-30.182
		c2.382-0.038,4.574-0.125,6.964-0.125c0.771,0,1.666-0.005,2.417-0.063c0.212-0.017,0.14,0.042,0.157,0.376
		c0.117,2.405,0.006,4.748,0.094,7.09c0.099,2.628,0.063,5.122,0.063,7.593C94.05,106.725,94.227,111.751,94.207,116.777z"/>
	<path fill="#1C75BC" d="M98.474,90.676c12.229,18.854,24.579,37.743,36.707,56.598c-4.057,0.136-8.202,0.359-12.393,0.47
		c-0.293,0.009-0.651,0.083-0.816,0.032c-0.232-0.071-0.571-0.801-0.784-1.129c-3.734-5.752-7.586-11.722-11.263-17.412
		c-5.052-0.029-10.066-0.099-15.09-0.156c0-2.762,0-5.523,0-8.283c3.211-0.031,6.396-0.088,9.632-0.094
		c-1.676-3.204-3.646-6.592-5.491-9.915c-0.121-0.217-0.299-0.483-0.345-0.659c-0.162-0.628-0.031-1.591-0.031-2.415
		c0-2.492-0.063-4.758-0.063-7.279c0-3.283-0.182-6.451-0.095-9.663C98.444,90.726,98.433,90.681,98.474,90.676z"/>
	<path fill="#1C75BC" d="M79.524,90.895c0.162,5.406,0.055,11.087,0.189,16.628c0.019,0.808,0.126,1.742,0,2.384
		c-0.048,0.24-0.328,0.561-0.503,0.878c-4.986,9.088-10.116,18.023-15.122,27.076c5.906-0.17,11.846-0.307,17.789-0.44
		c0.092-2.05,0.099-4.188,0.188-6.244c4.003-0.043,7.979-0.114,11.985-0.155c0.063,5.472,0.131,10.935,0.157,16.44
		c-16.299,0.026-32.556,0.093-48.817,0.155c-0.053-0.16,0.087-0.321,0.158-0.438c8.409-13.978,17.01-27.971,25.381-42.041
		c1.41-2.37,2.826-4.737,4.266-7.09C76.65,95.671,78.108,93.299,79.524,90.895z"/>
</g>
<g enable-background="new    ">
	<path fill="#1C75BC" d="M226.469,76.928h-16.731v-5.842c0-3.683-0.159-5.987-0.477-6.915s-1.073-1.392-2.265-1.392
		c-1.034,0-1.736,0.397-2.106,1.192c-0.372,0.795-0.557,2.836-0.557,6.12v30.88c0,2.889,0.185,4.789,0.557,5.703
		c0.371,0.914,1.113,1.371,2.226,1.371c1.218,0,2.046-0.517,2.484-1.55c0.437-1.033,0.656-3.047,0.656-6.041v-7.631h-3.378v-9.776
		h19.593v34.536h-10.515l-1.547-4.61c-1.14,1.987-2.579,3.478-4.315,4.472c-1.737,0.993-3.785,1.49-6.145,1.49
		c-2.811,0-5.443-0.683-7.895-2.047c-2.453-1.364-4.315-3.054-5.588-5.067c-1.273-2.013-2.068-4.126-2.386-6.339
		c-0.318-2.212-0.477-5.53-0.477-9.955V76.411c0-6.146,0.331-10.611,0.994-13.394c0.662-2.781,2.563-5.331,5.703-7.65
		c3.14-2.317,7.199-3.477,12.181-3.477c4.901,0,8.968,1.007,12.201,3.02c3.232,2.015,5.338,4.405,6.319,7.174
		c0.98,2.769,1.471,6.79,1.471,12.062V76.928z"/>
	<path fill="#1C75BC" d="M249.979,53.241v64.343h-16.533V53.241H249.979z"/>
	<path fill="#1C75BC" d="M293.043,83.366v12.916c0,4.743-0.239,8.221-0.716,10.433c-0.477,2.212-1.497,4.278-3.06,6.199
		c-1.563,1.922-3.57,3.339-6.021,4.253s-5.266,1.371-8.445,1.371c-3.551,0-6.558-0.392-9.021-1.173
		c-2.464-0.781-4.379-1.96-5.743-3.537c-1.365-1.576-2.338-3.483-2.921-5.723c-0.583-2.238-0.874-5.597-0.874-10.074V84.519
		c0-4.901,0.529-8.729,1.589-11.485c1.06-2.756,2.967-4.968,5.723-6.637c2.755-1.67,6.279-2.504,10.571-2.504
		c3.603,0,6.696,0.536,9.28,1.609c2.583,1.073,4.577,2.471,5.981,4.192c1.404,1.723,2.365,3.498,2.881,5.326
		S293.043,79.63,293.043,83.366z M276.987,79.392c0-2.702-0.146-4.404-0.437-5.106c-0.292-0.702-0.914-1.054-1.868-1.054
		c-0.954,0-1.589,0.352-1.907,1.054c-0.318,0.702-0.477,2.404-0.477,5.106v23.806c0,2.491,0.159,4.113,0.477,4.868
		c0.318,0.756,0.94,1.133,1.868,1.133c0.954,0,1.583-0.344,1.888-1.033c0.304-0.688,0.457-2.172,0.457-4.451V79.392z"/>
	<path fill="#1C75BC" d="M315.362,53.241v15.231c1.324-1.54,2.802-2.688,4.431-3.445c1.629-0.756,3.398-1.135,5.306-1.135
		c2.199,0,4.106,0.345,5.723,1.033c1.616,0.689,2.848,1.656,3.696,2.901c0.847,1.245,1.357,2.464,1.53,3.656
		c0.172,1.192,0.258,3.735,0.258,7.63v23.766c0,3.869-0.258,6.75-0.775,8.645s-1.729,3.537-3.636,4.928
		c-1.908,1.392-4.173,2.087-6.796,2.087c-1.882,0-3.637-0.412-5.266-1.234c-1.629-0.823-3.12-2.058-4.471-3.704l-1.034,3.984
		h-15.022V53.241H315.362z M320.25,79.829c0-2.729-0.173-4.511-0.517-5.346c-0.345-0.834-1.021-1.252-2.027-1.252
		c-0.98,0-1.617,0.365-1.908,1.093c-0.292,0.729-0.437,2.563-0.437,5.505v22.732c0,2.835,0.165,4.649,0.497,5.444
		c0.331,0.795,0.987,1.192,1.967,1.192c1.006,0,1.662-0.41,1.967-1.231c0.304-0.821,0.457-2.796,0.457-5.922V79.829z"/>
	<path fill="#1C75BC" d="M356.915,85.273h-15.063v-3.537c0-4.079,0.47-7.226,1.411-9.438c0.94-2.212,2.828-4.166,5.663-5.862
		c2.834-1.695,6.518-2.543,11.048-2.543c5.431,0,9.524,0.96,12.28,2.881c2.755,1.922,4.412,4.279,4.968,7.074
		c0.557,2.796,0.834,8.552,0.834,17.268v26.469h-15.619v-4.699c-0.98,1.885-2.245,3.298-3.795,4.239
		c-1.55,0.942-3.398,1.414-5.544,1.414c-2.809,0-5.385-0.789-7.73-2.365s-3.517-5.027-3.517-10.353v-4.332
		c0-3.947,0.622-6.637,1.868-8.067c1.245-1.431,4.332-3.1,9.26-5.008c5.272-2.066,8.094-3.457,8.465-4.173
		c0.371-0.715,0.557-2.172,0.557-4.372c0-2.755-0.206-4.55-0.616-5.385c-0.411-0.834-1.093-1.252-2.046-1.252
		c-1.087,0-1.763,0.352-2.027,1.054c-0.265,0.702-0.397,2.523-0.397,5.464V85.273z M362.002,92.507
		c-2.57,1.882-4.061,3.457-4.471,4.729c-0.411,1.271-0.616,3.1-0.616,5.484c0,2.729,0.179,4.49,0.537,5.285
		c0.357,0.795,1.066,1.192,2.126,1.192c1.007,0,1.662-0.311,1.967-0.934c0.304-0.622,0.457-2.259,0.457-4.908V92.507z"/>
	<path fill="#1C75BC" d="M401.091,53.241v64.343h-16.533V53.241H401.091z"/>
	<path fill="#1C75BC" d="M440.363,53.241v64.343h-16.731V53.241H440.363z"/>
	<path fill="#1C75BC" d="M463.913,64.846l-0.278,4.858c1.166-1.937,2.59-3.39,4.272-4.358s3.623-1.453,5.822-1.453
		c2.755,0,5.008,0.649,6.756,1.947c1.749,1.298,2.875,2.935,3.379,4.908c0.503,1.974,0.755,5.266,0.755,9.876v36.96h-16.056V81.061
		c0-3.629-0.119-5.842-0.358-6.637c-0.238-0.795-0.9-1.192-1.986-1.192c-1.14,0-1.855,0.457-2.146,1.371
		c-0.292,0.914-0.438,3.358-0.438,7.333v35.648h-16.056V64.846H463.913z"/>
	<path fill="#1C75BC" d="M527.643,53.241v64.343h-16.056v-3.825c-1.537,1.594-3.153,2.788-4.849,3.584
		c-1.696,0.796-3.472,1.195-5.326,1.195c-2.49,0-4.649-0.656-6.478-1.968s-3.001-2.828-3.518-4.55
		c-0.517-1.723-0.774-4.531-0.774-8.426v-24.68c0-4.054,0.258-6.929,0.774-8.624s1.702-3.186,3.558-4.472
		c1.854-1.284,4.066-1.927,6.637-1.927c1.987,0,3.809,0.358,5.465,1.075c1.655,0.717,3.159,1.793,4.511,3.227V53.241H527.643z
		 M511.587,78.12c0-1.934-0.166-3.232-0.497-3.895c-0.332-0.662-0.987-0.994-1.968-0.994c-0.953,0-1.596,0.298-1.927,0.895
		c-0.332,0.596-0.497,1.928-0.497,3.994v25.832c0,2.146,0.159,3.558,0.477,4.232c0.318,0.676,0.928,1.014,1.828,1.014
		c1.033,0,1.723-0.377,2.067-1.133c0.344-0.755,0.517-2.603,0.517-5.544V78.12z"/>
	<path fill="#1C75BC" d="M571.143,64.846v52.738h-16.334l0.278-4.382c-1.113,1.778-2.484,3.112-4.113,4.002
		c-1.63,0.889-3.505,1.334-5.624,1.334c-2.411,0-4.411-0.425-6.001-1.272s-2.762-1.973-3.517-3.378
		c-0.756-1.403-1.227-2.867-1.411-4.392c-0.186-1.522-0.278-4.55-0.278-9.081V64.846h16.056v35.888c0,4.107,0.126,6.544,0.378,7.313
		c0.251,0.769,0.934,1.152,2.047,1.152c1.191,0,1.9-0.397,2.126-1.192c0.225-0.795,0.338-3.352,0.338-7.67v-35.49H571.143z"/>
	<path fill="#1C75BC" d="M610.67,81.697h-14.228v-2.862c0-2.437-0.139-3.98-0.417-4.63c-0.278-0.648-0.974-0.974-2.087-0.974
		c-0.9,0-1.576,0.298-2.026,0.895c-0.451,0.596-0.676,1.49-0.676,2.683c0,1.616,0.112,2.802,0.338,3.557
		c0.225,0.755,0.9,1.584,2.026,2.484s3.438,2.212,6.935,3.935c4.664,2.278,7.723,4.425,9.182,6.438
		c1.455,2.014,2.186,4.942,2.186,8.783c0,4.292-0.557,7.531-1.67,9.717c-1.113,2.187-2.975,3.869-5.584,5.048
		s-5.756,1.769-9.438,1.769c-4.081,0-7.571-0.636-10.473-1.908c-2.901-1.271-4.895-2.993-5.981-5.166
		c-1.086-2.172-1.629-5.458-1.629-9.856v-2.543h14.228v3.338c0,2.836,0.179,4.677,0.536,5.524c0.358,0.848,1.066,1.271,2.127,1.271
		c1.139,0,1.934-0.284,2.384-0.854c0.45-0.569,0.676-1.769,0.676-3.597c0-2.517-0.292-4.093-0.874-4.729
		c-0.609-0.636-3.723-2.517-9.34-5.643c-4.716-2.649-7.591-5.054-8.624-7.214c-1.033-2.159-1.55-4.723-1.55-7.689
		c0-4.213,0.557-7.319,1.669-9.32c1.113-2,3.001-3.543,5.664-4.63c2.662-1.086,5.756-1.629,9.279-1.629
		c3.497,0,6.472,0.443,8.922,1.331c2.451,0.888,4.332,2.061,5.643,3.518c1.313,1.457,2.107,2.809,2.385,4.054
		c0.279,1.245,0.418,3.192,0.418,5.842V81.697z"/>
	<path fill="#1C75BC" d="M634.102,57.812v8.307h4.33v8.346h-4.33v28.217c0,3.472,0.178,5.405,0.535,5.803s1.848,0.596,4.471,0.596
		v8.505h-6.477c-3.656,0-6.268-0.152-7.83-0.457s-2.941-1.007-4.133-2.106c-1.193-1.099-1.934-2.357-2.227-3.775
		c-0.291-1.417-0.436-4.749-0.436-9.995V74.464h-3.459v-8.346h3.459v-8.307H634.102z"/>
	<path fill="#1C75BC" d="M659.002,64.846l-0.635,6.936c2.33-4.967,5.709-7.597,10.135-7.889v18.56c-2.941,0-5.102,0.397-6.479,1.192
		c-1.379,0.795-2.227,1.901-2.543,3.318c-0.318,1.417-0.479,4.684-0.479,9.796v20.825h-16.055V64.846H659.002z"/>
	<path fill="#1C75BC" d="M708.137,64.846L703.549,103c-0.725,6.04-1.334,10.159-1.824,12.358s-1.305,4.014-2.443,5.444
		s-2.721,2.484-4.748,3.16s-5.266,1.013-9.717,1.013h-9.734v-8.425c2.494,0,4.1-0.126,4.816-0.378
		c0.717-0.251,1.074-0.814,1.074-1.688c0-0.424-0.332-2.266-0.994-5.524l-8.791-44.114h14.574l5.275,35.609l2.574-35.609H708.137z"
		/>
	<path fill="#1C75BC" d="M756.707,53.241l9.568,64.343h-17.1l-0.896-11.565h-5.986l-1.006,11.565H723.99l8.533-64.343H756.707z
		 M747.84,94.613c-0.848-7.288-1.697-16.296-2.549-27.025c-1.703,12.321-2.775,21.329-3.211,27.025H747.84z"/>
	<path fill="#1C75BC" d="M785.951,64.846l-0.279,4.858c1.166-1.937,2.59-3.39,4.273-4.358c1.682-0.969,3.623-1.453,5.822-1.453
		c2.754,0,5.008,0.649,6.756,1.947s2.875,2.935,3.379,4.908c0.502,1.974,0.754,5.266,0.754,9.876v36.96h-16.055V81.061
		c0-3.629-0.119-5.842-0.359-6.637c-0.238-0.795-0.9-1.192-1.986-1.192c-1.139,0-1.855,0.457-2.146,1.371s-0.438,3.358-0.438,7.333
		v35.648h-16.055V64.846H785.951z"/>
	<path fill="#1C75BC" d="M827.504,85.273h-15.061v-3.537c0-4.079,0.469-7.226,1.41-9.438c0.939-2.212,2.828-4.166,5.662-5.862
		c2.836-1.695,6.52-2.543,11.049-2.543c5.432,0,9.525,0.96,12.281,2.881c2.754,1.922,4.41,4.279,4.967,7.074
		c0.557,2.796,0.836,8.552,0.836,17.268v26.469h-15.619v-4.699c-0.98,1.885-2.246,3.298-3.795,4.239
		c-1.551,0.942-3.398,1.414-5.545,1.414c-2.809,0-5.385-0.789-7.73-2.365c-2.344-1.576-3.516-5.027-3.516-10.353v-4.332
		c0-3.947,0.621-6.637,1.867-8.067c1.244-1.431,4.332-3.1,9.26-5.008c5.271-2.066,8.094-3.457,8.465-4.173
		c0.371-0.715,0.557-2.172,0.557-4.372c0-2.755-0.205-4.55-0.615-5.385c-0.412-0.834-1.094-1.252-2.047-1.252
		c-1.088,0-1.764,0.352-2.027,1.054c-0.266,0.702-0.398,2.523-0.398,5.464V85.273z M832.592,92.507
		c-2.57,1.882-4.061,3.457-4.471,4.729c-0.412,1.271-0.617,3.1-0.617,5.484c0,2.729,0.18,4.49,0.537,5.285s1.066,1.192,2.127,1.192
		c1.006,0,1.662-0.311,1.967-0.934c0.305-0.622,0.457-2.259,0.457-4.908V92.507z"/>
	<path fill="#1C75BC" d="M871.682,53.241v64.343h-16.533V53.241H871.682z"/>
	<path fill="#1C75BC" d="M912.033,64.846L907.445,103c-0.727,6.04-1.334,10.159-1.824,12.358s-1.305,4.014-2.443,5.444
		c-1.141,1.431-2.723,2.484-4.75,3.16c-2.025,0.676-5.266,1.013-9.715,1.013h-9.736v-8.425c2.494,0,4.102-0.126,4.816-0.378
		c0.717-0.251,1.076-0.814,1.076-1.688c0-0.424-0.332-2.266-0.996-5.524l-8.791-44.114h14.576l5.275,35.609l2.572-35.609H912.033z"
		/>
	<path fill="#1C75BC" d="M948.668,81.697h-14.229v-2.862c0-2.437-0.139-3.98-0.416-4.63c-0.279-0.648-0.975-0.974-2.088-0.974
		c-0.9,0-1.576,0.298-2.025,0.895c-0.451,0.596-0.676,1.49-0.676,2.683c0,1.616,0.111,2.802,0.338,3.557
		c0.225,0.755,0.9,1.584,2.025,2.484c1.127,0.9,3.439,2.212,6.936,3.935c4.664,2.278,7.723,4.425,9.182,6.438
		c1.455,2.014,2.186,4.942,2.186,8.783c0,4.292-0.557,7.531-1.67,9.717c-1.113,2.187-2.975,3.869-5.584,5.048
		s-5.756,1.769-9.438,1.769c-4.082,0-7.572-0.636-10.473-1.908c-2.902-1.271-4.895-2.993-5.982-5.166
		c-1.086-2.172-1.629-5.458-1.629-9.856v-2.543h14.229v3.338c0,2.836,0.178,4.677,0.535,5.524c0.359,0.848,1.066,1.271,2.127,1.271
		c1.139,0,1.934-0.284,2.385-0.854c0.449-0.569,0.676-1.769,0.676-3.597c0-2.517-0.293-4.093-0.875-4.729
		c-0.609-0.636-3.723-2.517-9.34-5.643c-4.715-2.649-7.59-5.054-8.623-7.214c-1.033-2.159-1.551-4.723-1.551-7.689
		c0-4.213,0.557-7.319,1.67-9.32c1.113-2,3-3.543,5.664-4.63c2.662-1.086,5.756-1.629,9.279-1.629c3.496,0,6.471,0.443,8.922,1.331
		s4.332,2.061,5.643,3.518c1.313,1.457,2.107,2.809,2.385,4.054c0.279,1.245,0.418,3.192,0.418,5.842V81.697z"/>
	<path fill="#1C75BC" d="M972.1,57.812v8.307h4.33v8.346h-4.33v28.217c0,3.472,0.178,5.405,0.535,5.803s1.848,0.596,4.471,0.596
		v8.505h-6.477c-3.656,0-6.268-0.152-7.83-0.457s-2.941-1.007-4.133-2.106c-1.193-1.099-1.934-2.357-2.227-3.775
		c-0.291-1.417-0.436-4.749-0.436-9.995V74.464h-3.459v-8.346h3.459v-8.307H972.1z"/>
	<path fill="#1C75BC" d="M1013.73,81.697h-14.227v-2.862c0-2.437-0.139-3.98-0.418-4.63c-0.277-0.648-0.973-0.974-2.086-0.974
		c-0.9,0-1.576,0.298-2.027,0.895c-0.451,0.596-0.676,1.49-0.676,2.683c0,1.616,0.113,2.802,0.338,3.557s0.9,1.584,2.027,2.484
		c1.125,0.9,3.438,2.212,6.936,3.935c4.662,2.278,7.723,4.425,9.18,6.438c1.457,2.014,2.186,4.942,2.186,8.783
		c0,4.292-0.557,7.531-1.668,9.717c-1.113,2.187-2.975,3.869-5.584,5.048c-2.611,1.179-5.758,1.769-9.439,1.769
		c-4.08,0-7.57-0.636-10.473-1.908c-2.9-1.271-4.895-2.993-5.98-5.166c-1.086-2.172-1.629-5.458-1.629-9.856v-2.543h14.227v3.338
		c0,2.836,0.18,4.677,0.537,5.524s1.066,1.271,2.127,1.271c1.139,0,1.934-0.284,2.383-0.854c0.451-0.569,0.676-1.769,0.676-3.597
		c0-2.517-0.291-4.093-0.873-4.729c-0.609-0.636-3.723-2.517-9.34-5.643c-4.717-2.649-7.592-5.054-8.625-7.214
		c-1.033-2.159-1.549-4.723-1.549-7.689c0-4.213,0.557-7.319,1.668-9.32c1.113-2,3.002-3.543,5.664-4.63
		c2.662-1.086,5.756-1.629,9.279-1.629c3.498,0,6.473,0.443,8.922,1.331c2.451,0.888,4.332,2.061,5.645,3.518
		c1.311,1.457,2.105,2.809,2.385,4.054c0.277,1.245,0.416,3.192,0.416,5.842V81.697z"/>
	<path fill="#1C75BC" d="M1029.572,104.985v5.763c0,3.021-0.359,5.498-1.074,7.432c-0.715,1.935-1.953,3.577-3.715,4.929
		c-1.764,1.351-3.756,2.251-5.982,2.702v-4.61c1.59-0.9,2.49-2.106,2.703-3.616h-2.703v-12.599H1029.572z"/>
	<path fill="#1C75BC" d="M1067.412,53.241v64.343h-16.73V53.241H1067.412z"/>
	<path fill="#1C75BC" d="M1090.963,64.846l-0.279,4.858c1.166-1.937,2.59-3.39,4.273-4.358c1.682-0.969,3.623-1.453,5.822-1.453
		c2.754,0,5.008,0.649,6.756,1.947s2.875,2.935,3.379,4.908c0.502,1.974,0.754,5.266,0.754,9.876v36.96h-16.055V81.061
		c0-3.629-0.119-5.842-0.359-6.637c-0.238-0.795-0.9-1.192-1.986-1.192c-1.139,0-1.855,0.457-2.146,1.371s-0.438,3.358-0.438,7.333
		v35.648h-16.055V64.846H1090.963z"/>
	<path fill="#1C75BC" d="M1153.66,84.757h-15.143v-6.08c0-2.12-0.172-3.558-0.518-4.313c-0.344-0.755-0.98-1.133-1.906-1.133
		c-0.928,0-1.551,0.332-1.869,0.994c-0.316,0.662-0.477,2.146-0.477,4.451v24.878c0,1.882,0.238,3.293,0.715,4.232
		c0.479,0.941,1.18,1.411,2.107,1.411c1.086,0,1.82-0.49,2.205-1.471c0.385-0.979,0.576-2.834,0.576-5.563v-6.279h14.309
		c-0.027,4.213-0.18,7.372-0.457,9.479c-0.279,2.106-1.168,4.266-2.664,6.478c-1.496,2.213-3.451,3.882-5.861,5.008
		c-2.412,1.126-5.393,1.689-8.941,1.689c-4.531,0-8.121-0.775-10.771-2.325c-2.648-1.55-4.523-3.722-5.623-6.518
		c-1.1-2.795-1.648-6.763-1.648-11.903V82.81c0-4.478,0.449-7.855,1.35-10.134c0.9-2.279,2.822-4.313,5.764-6.101
		c2.941-1.789,6.518-2.683,10.73-2.683c4.186,0,7.762,0.888,10.73,2.662c2.967,1.775,4.941,4.015,5.922,6.717
		C1153.168,75.974,1153.66,79.803,1153.66,84.757z"/>
	<path fill="#1C75BC" d="M1170.096,104.469v13.115h-12.121v-13.115H1170.096z"/>
</g>
<g enable-background="new    ">
	<path fill="#58595B" d="M185.946,172.042L196,145.861h3.732l10.715,26.181h-3.947l-3.054-7.929H192.5l-2.875,7.929H185.946z
		 M193.5,161.291h8.875l-2.732-7.25c-0.833-2.203-1.453-4.013-1.857-5.43c-0.333,1.679-0.804,3.346-1.411,5.001L193.5,161.291z"/>
	<path fill="#58595B" d="M225.932,172.042l-6.947-26.181h3.554l3.982,17.162c0.428,1.798,0.797,3.584,1.107,5.357
		c0.667-2.798,1.06-4.411,1.179-4.84l4.982-17.68h4.179l3.75,13.251c0.94,3.286,1.619,6.376,2.036,9.269
		c0.333-1.654,0.768-3.554,1.304-5.696l4.107-16.823h3.482l-7.179,26.181h-3.34l-5.518-19.948c-0.464-1.666-0.738-2.69-0.822-3.071
		c-0.274,1.203-0.53,2.227-0.768,3.071l-5.554,19.948H225.932z"/>
	<path fill="#58595B" d="M253.612,162.56c0-3.513,0.976-6.114,2.929-7.805c1.631-1.404,3.619-2.107,5.965-2.107
		c2.607,0,4.738,0.854,6.393,2.563c1.655,1.708,2.482,4.068,2.482,7.08c0,2.441-0.366,4.36-1.098,5.76
		c-0.732,1.399-1.798,2.485-3.197,3.259c-1.399,0.774-2.926,1.161-4.581,1.161c-2.655,0-4.801-0.852-6.438-2.554
		C254.43,168.215,253.612,165.762,253.612,162.56z M256.916,162.56c0,2.429,0.53,4.247,1.589,5.455c1.06,1.209,2.393,1.813,4,1.813
		c1.595,0,2.922-0.606,3.982-1.821c1.06-1.214,1.589-3.065,1.589-5.554c0-2.346-0.533-4.122-1.598-5.331
		c-1.066-1.208-2.391-1.813-3.974-1.813c-1.607,0-2.941,0.602-4,1.804C257.445,158.315,256.916,160.131,256.916,162.56z"/>
	<path fill="#58595B" d="M275.113,172.042v-18.966h2.893v2.875c0.738-1.345,1.42-2.231,2.045-2.66s1.313-0.644,2.063-0.644
		c1.083,0,2.185,0.346,3.304,1.036l-1.107,2.982c-0.786-0.465-1.572-0.696-2.357-0.696c-0.703,0-1.333,0.211-1.893,0.634
		s-0.958,1.009-1.196,1.759c-0.357,1.144-0.536,2.394-0.536,3.75v9.93H275.113z"/>
	<path fill="#58595B" d="M287.257,172.042v-26.181h3.215v26.181H287.257z"/>
	<path fill="#58595B" d="M307.759,172.042v-2.393c-1.203,1.881-2.971,2.821-5.304,2.821c-1.512,0-2.902-0.417-4.17-1.25
		c-1.268-0.833-2.25-1.997-2.946-3.491c-0.697-1.494-1.045-3.212-1.045-5.152c0-1.894,0.315-3.61,0.947-5.152
		c0.631-1.542,1.577-2.724,2.839-3.545c1.262-0.821,2.672-1.232,4.232-1.232c1.143,0,2.161,0.241,3.054,0.724
		s1.619,1.11,2.179,1.884v-9.394h3.197v26.181H307.759z M297.597,162.577c0,2.429,0.512,4.244,1.536,5.446
		c1.023,1.203,2.232,1.804,3.625,1.804c1.405,0,2.599-0.574,3.581-1.723c0.982-1.149,1.474-2.902,1.474-5.26
		c0-2.595-0.5-4.5-1.5-5.715c-1-1.214-2.232-1.821-3.696-1.821c-1.429,0-2.623,0.584-3.581,1.75
		C298.077,158.226,297.597,160.065,297.597,162.577z"/>
	<path fill="#58595B" d="M319.295,172.042l-5.804-18.966h3.322l3.018,10.947l1.125,4.072c0.048-0.203,0.375-1.507,0.982-3.911
		l3.018-11.108h3.304l2.839,11.001l0.947,3.625l1.089-3.661l3.25-10.965h3.125l-5.929,18.966h-3.339l-3.018-11.358l-0.732-3.231
		l-3.839,14.59H319.295z"/>
	<path fill="#58595B" d="M342.225,149.559v-3.697h3.214v3.697H342.225z M342.225,172.042v-18.966h3.214v18.966H342.225z"/>
	<path fill="#58595B" d="M362.637,172.042v-2.393c-1.203,1.881-2.971,2.821-5.304,2.821c-1.512,0-2.902-0.417-4.17-1.25
		c-1.268-0.833-2.25-1.997-2.946-3.491c-0.697-1.494-1.045-3.212-1.045-5.152c0-1.894,0.315-3.61,0.947-5.152
		c0.631-1.542,1.577-2.724,2.839-3.545c1.262-0.821,2.672-1.232,4.232-1.232c1.143,0,2.161,0.241,3.054,0.724
		s1.619,1.11,2.179,1.884v-9.394h3.197v26.181H362.637z M352.476,162.577c0,2.429,0.512,4.244,1.536,5.446
		c1.023,1.203,2.232,1.804,3.625,1.804c1.405,0,2.599-0.574,3.581-1.723c0.982-1.149,1.474-2.902,1.474-5.26
		c0-2.595-0.5-4.5-1.5-5.715c-1-1.214-2.232-1.821-3.696-1.821c-1.429,0-2.623,0.584-3.581,1.75
		C352.955,158.226,352.476,160.065,352.476,162.577z"/>
	<path fill="#58595B" d="M383.657,165.935l3.322,0.41c-0.524,1.941-1.495,3.447-2.911,4.519c-1.417,1.071-3.227,1.607-5.429,1.607
		c-2.774,0-4.973-0.854-6.599-2.563c-1.625-1.709-2.438-4.104-2.438-7.188c0-3.19,0.821-5.667,2.464-7.429s3.774-2.644,6.394-2.644
		c2.536,0,4.607,0.863,6.215,2.59c1.607,1.727,2.411,4.155,2.411,7.286c0,0.19-0.006,0.477-0.018,0.857h-14.144
		c0.119,2.083,0.708,3.679,1.768,4.786c1.06,1.107,2.381,1.66,3.964,1.66c1.179,0,2.185-0.309,3.018-0.929
		C382.507,168.28,383.168,167.292,383.657,165.935z M373.103,160.737h10.59c-0.143-1.595-0.548-2.791-1.214-3.589
		c-1.024-1.238-2.352-1.857-3.982-1.857c-1.477,0-2.718,0.494-3.724,1.482S373.209,159.083,373.103,160.737z"/>
	<path fill="#58595B" d="M401.444,172.042v-26.181h9.822c2,0,3.604,0.266,4.813,0.795c1.208,0.53,2.155,1.346,2.84,2.446
		c0.685,1.102,1.027,2.254,1.027,3.456c0,1.119-0.304,2.173-0.911,3.161c-0.607,0.988-1.524,1.785-2.75,2.393
		c1.583,0.465,2.801,1.257,3.652,2.375c0.851,1.119,1.277,2.441,1.277,3.965c0,1.227-0.259,2.366-0.777,3.42
		c-0.518,1.054-1.158,1.866-1.92,2.438c-0.762,0.571-1.718,1.003-2.866,1.295c-1.149,0.292-2.557,0.438-4.224,0.438H401.444z
		 M404.908,156.862h5.661c1.536,0,2.637-0.101,3.304-0.304c0.881-0.262,1.544-0.696,1.991-1.304
		c0.446-0.607,0.669-1.369,0.669-2.286c0-0.868-0.208-1.634-0.625-2.294c-0.417-0.661-1.012-1.113-1.786-1.357
		c-0.774-0.244-2.102-0.366-3.982-0.366h-5.233V156.862z M404.908,168.952h6.519c1.119,0,1.905-0.041,2.357-0.125
		c0.797-0.143,1.464-0.381,2-0.714s0.976-0.818,1.322-1.456c0.345-0.637,0.518-1.371,0.518-2.205c0-0.976-0.25-1.824-0.75-2.545
		c-0.5-0.72-1.194-1.226-2.081-1.518c-0.887-0.292-2.164-0.438-3.831-0.438h-6.054V168.952z"/>
	<path fill="#58595B" d="M438,172.042v-2.786c-1.477,2.144-3.482,3.215-6.018,3.215c-1.12,0-2.164-0.215-3.134-0.643
		c-0.971-0.429-1.691-0.968-2.161-1.616c-0.47-0.649-0.801-1.444-0.991-2.385c-0.131-0.631-0.197-1.631-0.197-3v-11.751h3.215
		v10.519c0,1.679,0.065,2.811,0.196,3.394c0.202,0.846,0.631,1.509,1.286,1.991s1.464,0.723,2.429,0.723s1.869-0.246,2.714-0.741
		c0.845-0.493,1.444-1.166,1.795-2.018c0.351-0.851,0.527-2.086,0.527-3.705v-10.162h3.214v18.966H438z"/>
	<path fill="#58595B" d="M444.625,166.381l3.179-0.5c0.179,1.274,0.676,2.25,1.491,2.929s1.956,1.018,3.42,1.018
		c1.476,0,2.572-0.3,3.286-0.901s1.071-1.307,1.071-2.116c0-0.727-0.315-1.298-0.946-1.715c-0.441-0.285-1.536-0.648-3.286-1.089
		c-2.357-0.596-3.991-1.11-4.902-1.545c-0.911-0.435-1.602-1.036-2.072-1.804s-0.706-1.616-0.706-2.545
		c0-0.845,0.193-1.628,0.581-2.349c0.387-0.72,0.914-1.318,1.581-1.794c0.5-0.369,1.181-0.682,2.045-0.938
		c0.863-0.256,1.789-0.384,2.777-0.384c1.488,0,2.795,0.215,3.92,0.644s1.956,1.009,2.491,1.741
		c0.536,0.731,0.905,1.711,1.107,2.938l-3.143,0.429c-0.143-0.977-0.557-1.738-1.241-2.286c-0.685-0.548-1.652-0.821-2.902-0.821
		c-1.476,0-2.53,0.244-3.161,0.732c-0.631,0.488-0.947,1.06-0.947,1.714c0,0.417,0.131,0.792,0.393,1.125
		c0.262,0.346,0.672,0.632,1.232,0.857c0.322,0.119,1.268,0.393,2.84,0.821c2.274,0.607,3.86,1.104,4.759,1.491
		c0.898,0.387,1.604,0.949,2.116,1.688c0.512,0.738,0.768,1.655,0.768,2.75c0,1.072-0.313,2.081-0.938,3.027
		s-1.527,1.679-2.706,2.196c-1.179,0.519-2.512,0.777-4,0.777c-2.464,0-4.343-0.512-5.634-1.536
		C445.807,169.911,444.982,168.393,444.625,166.381z"/>
	<path fill="#58595B" d="M464.216,149.559v-3.697h3.214v3.697H464.216z M464.216,172.042v-18.966h3.214v18.966H464.216z"/>
	<path fill="#58595B" d="M472.323,172.042v-18.966h2.893v2.697c1.393-2.084,3.405-3.126,6.036-3.126
		c1.143,0,2.194,0.206,3.152,0.616c0.958,0.411,1.675,0.95,2.152,1.616c0.476,0.667,0.81,1.459,1,2.375
		c0.119,0.596,0.179,1.638,0.179,3.126v11.661h-3.214v-11.536c0-1.31-0.125-2.289-0.375-2.938c-0.25-0.648-0.693-1.166-1.33-1.554
		c-0.637-0.387-1.384-0.58-2.241-0.58c-1.37,0-2.551,0.435-3.545,1.304c-0.994,0.869-1.491,2.519-1.491,4.947v10.357H472.323z"/>
	<path fill="#58595B" d="M505.647,165.935l3.322,0.41c-0.524,1.941-1.495,3.447-2.911,4.519c-1.417,1.071-3.227,1.607-5.429,1.607
		c-2.774,0-4.973-0.854-6.599-2.563c-1.625-1.709-2.438-4.104-2.438-7.188c0-3.19,0.821-5.667,2.464-7.429s3.774-2.644,6.394-2.644
		c2.536,0,4.607,0.863,6.215,2.59c1.607,1.727,2.411,4.155,2.411,7.286c0,0.19-0.006,0.477-0.018,0.857h-14.144
		c0.119,2.083,0.708,3.679,1.768,4.786c1.06,1.107,2.381,1.66,3.964,1.66c1.179,0,2.185-0.309,3.018-0.929
		C504.498,168.28,505.159,167.292,505.647,165.935z M495.093,160.737h10.59c-0.143-1.595-0.548-2.791-1.214-3.589
		c-1.024-1.238-2.352-1.857-3.982-1.857c-1.477,0-2.718,0.494-3.724,1.482S495.2,159.083,495.093,160.737z"/>
	<path fill="#58595B" d="M511.719,166.381l3.179-0.5c0.179,1.274,0.676,2.25,1.491,2.929s1.956,1.018,3.42,1.018
		c1.476,0,2.572-0.3,3.286-0.901s1.071-1.307,1.071-2.116c0-0.727-0.315-1.298-0.946-1.715c-0.441-0.285-1.536-0.648-3.286-1.089
		c-2.357-0.596-3.991-1.11-4.902-1.545c-0.911-0.435-1.602-1.036-2.072-1.804s-0.706-1.616-0.706-2.545
		c0-0.845,0.193-1.628,0.581-2.349c0.387-0.72,0.914-1.318,1.581-1.794c0.5-0.369,1.181-0.682,2.045-0.938
		c0.863-0.256,1.789-0.384,2.777-0.384c1.488,0,2.795,0.215,3.92,0.644s1.956,1.009,2.491,1.741
		c0.536,0.731,0.905,1.711,1.107,2.938l-3.143,0.429c-0.143-0.977-0.557-1.738-1.241-2.286c-0.685-0.548-1.652-0.821-2.902-0.821
		c-1.476,0-2.53,0.244-3.161,0.732c-0.631,0.488-0.947,1.06-0.947,1.714c0,0.417,0.131,0.792,0.393,1.125
		c0.262,0.346,0.672,0.632,1.232,0.857c0.322,0.119,1.268,0.393,2.84,0.821c2.274,0.607,3.86,1.104,4.759,1.491
		c0.898,0.387,1.604,0.949,2.116,1.688c0.512,0.738,0.768,1.655,0.768,2.75c0,1.072-0.313,2.081-0.938,3.027
		s-1.527,1.679-2.706,2.196c-1.179,0.519-2.512,0.777-4,0.777c-2.464,0-4.343-0.512-5.634-1.536
		C512.901,169.911,512.077,168.393,511.719,166.381z"/>
	<path fill="#58595B" d="M530.006,166.381l3.179-0.5c0.179,1.274,0.676,2.25,1.491,2.929s1.956,1.018,3.42,1.018
		c1.476,0,2.572-0.3,3.286-0.901s1.071-1.307,1.071-2.116c0-0.727-0.315-1.298-0.946-1.715c-0.441-0.285-1.536-0.648-3.286-1.089
		c-2.357-0.596-3.991-1.11-4.902-1.545c-0.911-0.435-1.602-1.036-2.072-1.804s-0.706-1.616-0.706-2.545
		c0-0.845,0.193-1.628,0.581-2.349c0.387-0.72,0.914-1.318,1.581-1.794c0.5-0.369,1.181-0.682,2.045-0.938
		c0.863-0.256,1.789-0.384,2.777-0.384c1.488,0,2.795,0.215,3.92,0.644s1.956,1.009,2.491,1.741
		c0.536,0.731,0.905,1.711,1.107,2.938l-3.143,0.429c-0.143-0.977-0.557-1.738-1.241-2.286c-0.685-0.548-1.652-0.821-2.902-0.821
		c-1.476,0-2.53,0.244-3.161,0.732c-0.631,0.488-0.947,1.06-0.947,1.714c0,0.417,0.131,0.792,0.393,1.125
		c0.262,0.346,0.672,0.632,1.232,0.857c0.322,0.119,1.268,0.393,2.84,0.821c2.274,0.607,3.86,1.104,4.759,1.491
		c0.898,0.387,1.604,0.949,2.116,1.688c0.512,0.738,0.768,1.655,0.768,2.75c0,1.072-0.313,2.081-0.938,3.027
		s-1.527,1.679-2.706,2.196c-1.179,0.519-2.512,0.777-4,0.777c-2.464,0-4.343-0.512-5.634-1.536
		C531.188,169.911,530.364,168.393,530.006,166.381z"/>
	<path fill="#58595B" d="M558.973,163.631l3.268-0.286c0.154,1.31,0.515,2.385,1.081,3.224c0.565,0.84,1.443,1.518,2.634,2.036
		c1.19,0.518,2.53,0.776,4.018,0.776c1.322,0,2.488-0.196,3.5-0.589c1.012-0.394,1.765-0.932,2.259-1.616
		c0.494-0.685,0.741-1.432,0.741-2.241c0-0.821-0.238-1.539-0.714-2.152s-1.262-1.128-2.357-1.545
		c-0.703-0.273-2.256-0.699-4.661-1.276c-2.405-0.577-4.09-1.122-5.054-1.634c-1.25-0.655-2.182-1.468-2.794-2.438
		c-0.614-0.97-0.92-2.056-0.92-3.259c0-1.321,0.375-2.557,1.125-3.706c0.75-1.148,1.845-2.021,3.286-2.616
		c1.44-0.595,3.042-0.893,4.804-0.893c1.94,0,3.652,0.313,5.134,0.938c1.482,0.625,2.622,1.545,3.42,2.759
		c0.797,1.215,1.226,2.59,1.286,4.126l-3.321,0.25c-0.179-1.655-0.783-2.905-1.813-3.75c-1.03-0.846-2.551-1.269-4.563-1.269
		c-2.096,0-3.623,0.384-4.581,1.152c-0.958,0.768-1.438,1.693-1.438,2.776c0,0.941,0.339,1.715,1.018,2.322
		c0.667,0.606,2.408,1.229,5.224,1.866c2.815,0.637,4.747,1.193,5.795,1.669c1.524,0.703,2.649,1.593,3.375,2.67
		c0.726,1.078,1.089,2.319,1.089,3.724c0,1.394-0.399,2.706-1.197,3.938c-0.798,1.232-1.944,2.191-3.438,2.876
		c-1.494,0.685-3.176,1.026-5.045,1.026c-2.37,0-4.355-0.346-5.956-1.035c-1.602-0.69-2.857-1.729-3.768-3.117
		C559.5,166.949,559.02,165.381,558.973,163.631z"/>
	<path fill="#58595B" d="M591.153,169.167l0.464,2.839c-0.905,0.19-1.714,0.286-2.429,0.286c-1.167,0-2.072-0.185-2.714-0.554
		c-0.643-0.369-1.096-0.854-1.357-1.455c-0.262-0.602-0.393-1.866-0.393-3.795v-10.912h-2.357v-2.5h2.357v-4.696l3.197-1.929v6.625
		h3.232v2.5h-3.232v11.091c0,0.917,0.057,1.506,0.17,1.768c0.113,0.262,0.297,0.471,0.553,0.625
		c0.256,0.155,0.622,0.232,1.099,0.232C590.1,169.292,590.57,169.25,591.153,169.167z"/>
	<path fill="#58595B" d="M594.261,172.042v-18.966h2.893v2.875c0.738-1.345,1.42-2.231,2.045-2.66s1.313-0.644,2.063-0.644
		c1.083,0,2.185,0.346,3.304,1.036l-1.107,2.982c-0.786-0.465-1.571-0.696-2.357-0.696c-0.703,0-1.333,0.211-1.893,0.634
		s-0.958,1.009-1.196,1.759c-0.357,1.144-0.536,2.394-0.536,3.75v9.93H594.261z"/>
	<path fill="#58595B" d="M618.853,169.702c-1.191,1.013-2.337,1.727-3.438,2.144c-1.101,0.416-2.282,0.625-3.545,0.625
		c-2.083,0-3.685-0.509-4.804-1.527c-1.119-1.018-1.679-2.318-1.679-3.901c0-0.929,0.212-1.777,0.634-2.545
		c0.423-0.769,0.977-1.385,1.661-1.849s1.456-0.815,2.313-1.054c0.631-0.166,1.584-0.327,2.857-0.482
		c2.596-0.31,4.507-0.679,5.732-1.106c0.012-0.44,0.019-0.721,0.019-0.84c0-1.31-0.304-2.232-0.911-2.768
		c-0.821-0.727-2.042-1.09-3.661-1.09c-1.512,0-2.628,0.266-3.349,0.795c-0.72,0.529-1.253,1.468-1.598,2.813l-3.144-0.429
		c0.286-1.345,0.756-2.432,1.411-3.259c0.654-0.827,1.601-1.465,2.839-1.911s2.673-0.67,4.305-0.67c1.618,0,2.935,0.19,3.946,0.572
		c1.012,0.381,1.756,0.859,2.232,1.438c0.476,0.577,0.81,1.307,1,2.188c0.107,0.548,0.161,1.535,0.161,2.964v4.286
		c0,2.988,0.068,4.879,0.205,5.67c0.137,0.792,0.407,1.552,0.813,2.277h-3.357C619.162,171.375,618.947,170.596,618.853,169.702z
		 M618.584,162.523c-1.167,0.477-2.917,0.881-5.25,1.215c-1.321,0.19-2.256,0.404-2.804,0.643s-0.971,0.586-1.268,1.045
		c-0.298,0.458-0.447,0.967-0.447,1.526c0,0.857,0.324,1.571,0.974,2.144c0.648,0.571,1.599,0.856,2.849,0.856
		c1.238,0,2.339-0.271,3.304-0.813c0.964-0.541,1.673-1.282,2.125-2.223c0.345-0.727,0.518-1.798,0.518-3.215V162.523z"/>
	<path fill="#58595B" d="M633.835,169.167l0.464,2.839c-0.905,0.19-1.715,0.286-2.429,0.286c-1.167,0-2.071-0.185-2.715-0.554
		c-0.643-0.369-1.095-0.854-1.356-1.455c-0.263-0.602-0.394-1.866-0.394-3.795v-10.912h-2.357v-2.5h2.357v-4.696l3.197-1.929v6.625
		h3.232v2.5h-3.232v11.091c0,0.917,0.056,1.506,0.169,1.768s0.298,0.471,0.554,0.625c0.256,0.155,0.622,0.232,1.099,0.232
		C632.781,169.292,633.251,169.25,633.835,169.167z"/>
	<path fill="#58595B" d="M649.961,165.935l3.322,0.41c-0.524,1.941-1.494,3.447-2.911,4.519s-3.227,1.607-5.429,1.607
		c-2.774,0-4.974-0.854-6.599-2.563c-1.625-1.709-2.438-4.104-2.438-7.188c0-3.19,0.821-5.667,2.464-7.429
		c1.644-1.762,3.774-2.644,6.394-2.644c2.536,0,4.607,0.863,6.215,2.59s2.41,4.155,2.41,7.286c0,0.19-0.006,0.477-0.018,0.857
		h-14.144c0.119,2.083,0.708,3.679,1.768,4.786s2.381,1.66,3.965,1.66c1.179,0,2.185-0.309,3.019-0.929
		C648.813,168.28,649.473,167.292,649.961,165.935z M639.407,160.737h10.59c-0.143-1.595-0.548-2.791-1.215-3.589
		c-1.023-1.238-2.351-1.857-3.982-1.857c-1.476,0-2.717,0.494-3.723,1.482C640.07,157.762,639.514,159.083,639.407,160.737z"/>
	<path fill="#58595B" d="M656.729,173.613l3.125,0.465c0.132,0.964,0.494,1.666,1.09,2.107c0.798,0.595,1.887,0.893,3.269,0.893
		c1.487,0,2.637-0.298,3.446-0.893c0.81-0.596,1.357-1.429,1.643-2.501c0.167-0.654,0.244-2.029,0.232-4.125
		c-1.405,1.655-3.155,2.482-5.25,2.482c-2.607,0-4.626-0.94-6.055-2.821s-2.143-4.138-2.143-6.769c0-1.81,0.327-3.479,0.982-5.01
		c0.654-1.529,1.604-2.711,2.849-3.545c1.243-0.833,2.705-1.25,4.384-1.25c2.238,0,4.083,0.905,5.536,2.715v-2.286h2.965v16.395
		c0,2.952-0.301,5.045-0.902,6.277c-0.602,1.231-1.554,2.205-2.857,2.919c-1.304,0.715-2.908,1.072-4.813,1.072
		c-2.263,0-4.09-0.509-5.482-1.527C657.354,177.194,656.682,175.661,656.729,173.613z M659.391,162.22
		c0,2.488,0.494,4.304,1.482,5.447c0.988,1.143,2.226,1.714,3.715,1.714c1.476,0,2.714-0.568,3.714-1.705s1.5-2.92,1.5-5.349
		c0-2.321-0.515-4.072-1.544-5.251c-1.03-1.178-2.271-1.768-3.724-1.768c-1.429,0-2.644,0.58-3.644,1.741
		S659.391,159.934,659.391,162.22z"/>
	<path fill="#58595B" d="M677.516,179.346l-0.356-3.018c0.702,0.19,1.315,0.285,1.839,0.285c0.715,0,1.286-0.119,1.715-0.356
		c0.429-0.238,0.779-0.571,1.054-1c0.202-0.322,0.529-1.119,0.982-2.394c0.059-0.179,0.154-0.44,0.285-0.785l-7.197-19.002h3.465
		l3.947,10.983c0.512,1.393,0.97,2.857,1.375,4.393c0.368-1.476,0.81-2.916,1.321-4.321l4.054-11.055h3.215l-7.215,19.287
		c-0.774,2.083-1.375,3.519-1.804,4.304c-0.571,1.06-1.227,1.837-1.965,2.331s-1.619,0.741-2.643,0.741
		C678.969,179.739,678.278,179.607,677.516,179.346z"/>
	<path fill="#58595B" d="M721.073,168.952c-1.06,1.179-2.214,2.063-3.464,2.652c-1.251,0.589-2.602,0.884-4.055,0.884
		c-2.679,0-4.804-0.904-6.375-2.714c-1.274-1.477-1.911-3.126-1.911-4.947c0-1.619,0.521-3.08,1.563-4.384s2.599-2.45,4.67-3.438
		c-1.179-1.356-1.964-2.458-2.356-3.304c-0.394-0.845-0.59-1.66-0.59-2.446c0-1.571,0.616-2.938,1.849-4.099
		s2.782-1.741,4.652-1.741c1.785,0,3.247,0.548,4.384,1.643c1.137,1.096,1.705,2.411,1.705,3.947c0,2.488-1.648,4.613-4.946,6.375
		l4.696,5.983c0.536-1.048,0.953-2.263,1.25-3.644l3.34,0.714c-0.571,2.286-1.346,4.168-2.321,5.644
		c1.202,1.596,2.565,2.935,4.09,4.019l-2.161,2.554C723.794,171.816,722.454,170.584,721.073,168.952z M719.056,166.417
		l-5.894-7.305c-1.738,1.036-2.911,1.997-3.518,2.885c-0.607,0.887-0.911,1.765-0.911,2.634c0,1.06,0.423,2.161,1.268,3.304
		c0.846,1.143,2.042,1.715,3.59,1.715c0.964,0,1.961-0.301,2.991-0.902C717.611,168.146,718.437,167.369,719.056,166.417z
		 M714.537,155.309c1.394-0.821,2.295-1.542,2.706-2.161c0.41-0.618,0.616-1.304,0.616-2.054c0-0.893-0.283-1.622-0.849-2.188
		s-1.271-0.848-2.116-0.848c-0.869,0-1.593,0.279-2.17,0.839s-0.866,1.244-0.866,2.054c0,0.405,0.104,0.83,0.313,1.277
		c0.208,0.446,0.521,0.919,0.938,1.419L714.537,155.309z"/>
	<path fill="#58595B" d="M740.968,172.042v-26.181h5.214l6.197,18.537c0.571,1.727,0.988,3.019,1.25,3.875
		c0.298-0.952,0.762-2.351,1.393-4.196l6.269-18.216h4.661v26.181h-3.34V150.13l-7.607,21.912h-3.125l-7.572-22.287v22.287H740.968z
		"/>
	<path fill="#58595B" d="M783.507,169.702c-1.191,1.013-2.337,1.727-3.438,2.144c-1.101,0.416-2.282,0.625-3.545,0.625
		c-2.083,0-3.685-0.509-4.804-1.527c-1.119-1.018-1.679-2.318-1.679-3.901c0-0.929,0.212-1.777,0.634-2.545
		c0.423-0.769,0.977-1.385,1.661-1.849s1.456-0.815,2.313-1.054c0.631-0.166,1.584-0.327,2.857-0.482
		c2.596-0.31,4.507-0.679,5.732-1.106c0.012-0.44,0.019-0.721,0.019-0.84c0-1.31-0.304-2.232-0.911-2.768
		c-0.821-0.727-2.042-1.09-3.661-1.09c-1.512,0-2.628,0.266-3.349,0.795c-0.72,0.529-1.253,1.468-1.598,2.813l-3.144-0.429
		c0.286-1.345,0.756-2.432,1.411-3.259c0.654-0.827,1.601-1.465,2.839-1.911s2.673-0.67,4.305-0.67c1.618,0,2.935,0.19,3.946,0.572
		c1.012,0.381,1.756,0.859,2.232,1.438c0.476,0.577,0.81,1.307,1,2.188c0.107,0.548,0.161,1.535,0.161,2.964v4.286
		c0,2.988,0.068,4.879,0.205,5.67c0.137,0.792,0.407,1.552,0.813,2.277h-3.357C783.816,171.375,783.602,170.596,783.507,169.702z
		 M783.238,162.523c-1.167,0.477-2.917,0.881-5.25,1.215c-1.321,0.19-2.256,0.404-2.804,0.643s-0.971,0.586-1.268,1.045
		c-0.298,0.458-0.447,0.967-0.447,1.526c0,0.857,0.324,1.571,0.974,2.144c0.648,0.571,1.599,0.856,2.849,0.856
		c1.238,0,2.339-0.271,3.304-0.813c0.964-0.541,1.673-1.282,2.125-2.223c0.345-0.727,0.518-1.798,0.518-3.215V162.523z"/>
	<path fill="#58595B" d="M791.436,172.042v-18.966h2.894v2.875c0.737-1.345,1.419-2.231,2.045-2.66
		c0.625-0.429,1.313-0.644,2.063-0.644c1.083,0,2.185,0.346,3.304,1.036l-1.107,2.982c-0.786-0.465-1.571-0.696-2.357-0.696
		c-0.702,0-1.333,0.211-1.893,0.634c-0.561,0.423-0.959,1.009-1.197,1.759c-0.356,1.144-0.535,2.394-0.535,3.75v9.93H791.436z"/>
	<path fill="#58595B" d="M803.668,172.042v-26.181h3.215v14.93l7.607-7.715h4.161l-7.251,7.036l7.983,11.93h-3.965l-6.269-9.697
		l-2.268,2.179v7.519H803.668z"/>
	<path fill="#58595B" d="M834.92,165.935l3.322,0.41c-0.524,1.941-1.494,3.447-2.911,4.519s-3.227,1.607-5.429,1.607
		c-2.774,0-4.974-0.854-6.599-2.563c-1.625-1.709-2.438-4.104-2.438-7.188c0-3.19,0.821-5.667,2.464-7.429
		c1.644-1.762,3.774-2.644,6.394-2.644c2.536,0,4.607,0.863,6.215,2.59s2.41,4.155,2.41,7.286c0,0.19-0.006,0.477-0.018,0.857
		h-14.144c0.119,2.083,0.708,3.679,1.768,4.786s2.381,1.66,3.965,1.66c1.179,0,2.185-0.309,3.019-0.929
		C833.771,168.28,834.432,167.292,834.92,165.935z M824.366,160.737h10.59c-0.143-1.595-0.548-2.791-1.215-3.589
		c-1.023-1.238-2.351-1.857-3.982-1.857c-1.476,0-2.717,0.494-3.723,1.482C825.029,157.762,824.473,159.083,824.366,160.737z"/>
	<path fill="#58595B" d="M849.297,169.167l0.464,2.839c-0.905,0.19-1.715,0.286-2.429,0.286c-1.167,0-2.071-0.185-2.715-0.554
		c-0.643-0.369-1.095-0.854-1.356-1.455c-0.263-0.602-0.394-1.866-0.394-3.795v-10.912h-2.357v-2.5h2.357v-4.696l3.197-1.929v6.625
		h3.232v2.5h-3.232v11.091c0,0.917,0.056,1.506,0.169,1.768s0.298,0.471,0.554,0.625c0.256,0.155,0.622,0.232,1.099,0.232
		C848.243,169.292,848.713,169.25,849.297,169.167z"/>
	<path fill="#58595B" d="M863.602,172.042v-26.181h3.464v26.181H863.602z"/>
	<path fill="#58595B" d="M872.763,172.042v-18.966h2.893v2.697c1.394-2.084,3.405-3.126,6.036-3.126
		c1.144,0,2.193,0.206,3.152,0.616c0.958,0.411,1.676,0.95,2.151,1.616c0.477,0.667,0.81,1.459,1.001,2.375
		c0.118,0.596,0.178,1.638,0.178,3.126v11.661h-3.214v-11.536c0-1.31-0.125-2.289-0.375-2.938c-0.25-0.648-0.694-1.166-1.331-1.554
		c-0.637-0.387-1.384-0.58-2.241-0.58c-1.369,0-2.551,0.435-3.545,1.304s-1.491,2.519-1.491,4.947v10.357H872.763z"/>
	<path fill="#58595B" d="M900.122,169.167l0.464,2.839c-0.905,0.19-1.715,0.286-2.429,0.286c-1.167,0-2.071-0.185-2.715-0.554
		c-0.643-0.369-1.095-0.854-1.356-1.455c-0.263-0.602-0.394-1.866-0.394-3.795v-10.912h-2.357v-2.5h2.357v-4.696l3.197-1.929v6.625
		h3.232v2.5h-3.232v11.091c0,0.917,0.056,1.506,0.169,1.768s0.298,0.471,0.554,0.625c0.256,0.155,0.622,0.232,1.099,0.232
		C899.068,169.292,899.538,169.25,900.122,169.167z"/>
	<path fill="#58595B" d="M916.247,165.935l3.322,0.41c-0.524,1.941-1.494,3.447-2.911,4.519s-3.227,1.607-5.429,1.607
		c-2.774,0-4.974-0.854-6.599-2.563c-1.625-1.709-2.438-4.104-2.438-7.188c0-3.19,0.821-5.667,2.464-7.429
		c1.644-1.762,3.774-2.644,6.394-2.644c2.536,0,4.607,0.863,6.215,2.59s2.41,4.155,2.41,7.286c0,0.19-0.006,0.477-0.018,0.857
		h-14.144c0.119,2.083,0.708,3.679,1.768,4.786s2.381,1.66,3.965,1.66c1.179,0,2.185-0.309,3.019-0.929
		C915.099,168.28,915.759,167.292,916.247,165.935z M905.693,160.737h10.59c-0.143-1.595-0.548-2.791-1.215-3.589
		c-1.023-1.238-2.351-1.857-3.982-1.857c-1.476,0-2.717,0.494-3.723,1.482C906.356,157.762,905.8,159.083,905.693,160.737z"/>
	<path fill="#58595B" d="M923.534,172.042v-26.181h3.214v26.181H923.534z"/>
	<path fill="#58595B" d="M931.66,172.042v-26.181h3.214v26.181H931.66z"/>
	<path fill="#58595B" d="M939.874,149.559v-3.697h3.215v3.697H939.874z M939.874,172.042v-18.966h3.215v18.966H939.874z"/>
	<path fill="#58595B" d="M947.393,173.613l3.125,0.465c0.132,0.964,0.494,1.666,1.09,2.107c0.798,0.595,1.887,0.893,3.269,0.893
		c1.487,0,2.637-0.298,3.446-0.893c0.81-0.596,1.357-1.429,1.643-2.501c0.167-0.654,0.244-2.029,0.232-4.125
		c-1.405,1.655-3.155,2.482-5.25,2.482c-2.607,0-4.626-0.94-6.055-2.821s-2.143-4.138-2.143-6.769c0-1.81,0.327-3.479,0.982-5.01
		c0.654-1.529,1.604-2.711,2.849-3.545c1.243-0.833,2.705-1.25,4.384-1.25c2.238,0,4.083,0.905,5.536,2.715v-2.286h2.965v16.395
		c0,2.952-0.301,5.045-0.902,6.277c-0.602,1.231-1.554,2.205-2.857,2.919c-1.304,0.715-2.908,1.072-4.813,1.072
		c-2.263,0-4.09-0.509-5.482-1.527C948.018,177.194,947.345,175.661,947.393,173.613z M950.054,162.22
		c0,2.488,0.494,4.304,1.482,5.447c0.988,1.143,2.226,1.714,3.715,1.714c1.476,0,2.714-0.568,3.714-1.705s1.5-2.92,1.5-5.349
		c0-2.321-0.515-4.072-1.544-5.251c-1.03-1.178-2.271-1.768-3.724-1.768c-1.429,0-2.644,0.58-3.644,1.741
		S950.054,159.934,950.054,162.22z"/>
	<path fill="#58595B" d="M981.306,165.935l3.322,0.41c-0.524,1.941-1.494,3.447-2.911,4.519s-3.227,1.607-5.429,1.607
		c-2.774,0-4.974-0.854-6.599-2.563c-1.625-1.709-2.438-4.104-2.438-7.188c0-3.19,0.821-5.667,2.464-7.429
		c1.644-1.762,3.774-2.644,6.394-2.644c2.536,0,4.607,0.863,6.215,2.59s2.41,4.155,2.41,7.286c0,0.19-0.006,0.477-0.018,0.857
		h-14.144c0.119,2.083,0.708,3.679,1.768,4.786s2.381,1.66,3.965,1.66c1.179,0,2.185-0.309,3.019-0.929
		C980.157,168.28,980.817,167.292,981.306,165.935z M970.752,160.737h10.59c-0.143-1.595-0.548-2.791-1.215-3.589
		c-1.023-1.238-2.351-1.857-3.982-1.857c-1.476,0-2.717,0.494-3.723,1.482C971.415,157.762,970.858,159.083,970.752,160.737z"/>
	<path fill="#58595B" d="M988.663,172.042v-18.966h2.893v2.697c1.394-2.084,3.405-3.126,6.036-3.126
		c1.144,0,2.193,0.206,3.152,0.616c0.958,0.411,1.676,0.95,2.151,1.616c0.477,0.667,0.81,1.459,1.001,2.375
		c0.118,0.596,0.178,1.638,0.178,3.126v11.661h-3.214v-11.536c0-1.31-0.125-2.289-0.375-2.938c-0.25-0.648-0.694-1.166-1.331-1.554
		c-0.637-0.387-1.384-0.58-2.241-0.58c-1.369,0-2.551,0.435-3.545,1.304s-1.491,2.519-1.491,4.947v10.357H988.663z"/>
	<path fill="#58595B" d="M1021.38,165.095l3.16,0.411c-0.345,2.179-1.229,3.884-2.651,5.116c-1.423,1.232-3.17,1.849-5.241,1.849
		c-2.596,0-4.683-0.849-6.26-2.545c-1.578-1.696-2.366-4.128-2.366-7.295c0-2.048,0.339-3.84,1.018-5.376
		c0.679-1.535,1.712-2.688,3.099-3.455c1.387-0.769,2.896-1.152,4.527-1.152c2.06,0,3.744,0.521,5.054,1.563
		c1.31,1.042,2.149,2.521,2.519,4.438l-3.126,0.481c-0.298-1.273-0.824-2.231-1.58-2.875c-0.756-0.643-1.67-0.964-2.741-0.964
		c-1.619,0-2.935,0.58-3.947,1.741c-1.012,1.16-1.518,2.997-1.518,5.509c0,2.548,0.488,4.399,1.465,5.555
		c0.976,1.154,2.25,1.731,3.821,1.731c1.262,0,2.315-0.387,3.161-1.16C1020.617,167.893,1021.153,166.702,1021.38,165.095z"/>
	<path fill="#58595B" d="M1040.273,165.935l3.322,0.41c-0.524,1.941-1.494,3.447-2.911,4.519s-3.227,1.607-5.429,1.607
		c-2.774,0-4.974-0.854-6.599-2.563c-1.625-1.709-2.438-4.104-2.438-7.188c0-3.19,0.821-5.667,2.464-7.429
		c1.644-1.762,3.774-2.644,6.394-2.644c2.536,0,4.607,0.863,6.215,2.59s2.41,4.155,2.41,7.286c0,0.19-0.006,0.477-0.018,0.857
		h-14.144c0.119,2.083,0.708,3.679,1.768,4.786s2.381,1.66,3.965,1.66c1.179,0,2.185-0.309,3.019-0.929
		C1039.125,168.28,1039.785,167.292,1040.273,165.935z M1029.72,160.737h10.59c-0.143-1.595-0.548-2.791-1.215-3.589
		c-1.023-1.238-2.351-1.857-3.982-1.857c-1.476,0-2.717,0.494-3.723,1.482C1030.383,157.762,1029.826,159.083,1029.72,160.737z"/>
	<path fill="#58595B" d="M1057.024,163.631l3.269-0.286c0.154,1.31,0.515,2.385,1.08,3.224c0.565,0.84,1.443,1.518,2.635,2.036
		c1.19,0.518,2.529,0.776,4.018,0.776c1.321,0,2.488-0.196,3.5-0.589c1.013-0.394,1.766-0.932,2.26-1.616s0.741-1.432,0.741-2.241
		c0-0.821-0.238-1.539-0.715-2.152s-1.262-1.128-2.357-1.545c-0.702-0.273-2.256-0.699-4.661-1.276
		c-2.404-0.577-4.089-1.122-5.054-1.634c-1.25-0.655-2.182-1.468-2.795-2.438c-0.613-0.97-0.92-2.056-0.92-3.259
		c0-1.321,0.376-2.557,1.126-3.706c0.75-1.148,1.845-2.021,3.285-2.616c1.44-0.595,3.042-0.893,4.805-0.893
		c1.94,0,3.651,0.313,5.134,0.938s2.622,1.545,3.42,2.759c0.798,1.215,1.227,2.59,1.286,4.126l-3.322,0.25
		c-0.179-1.655-0.782-2.905-1.813-3.75c-1.029-0.846-2.551-1.269-4.563-1.269c-2.096,0-3.623,0.384-4.581,1.152
		c-0.958,0.768-1.438,1.693-1.438,2.776c0,0.941,0.34,1.715,1.019,2.322c0.666,0.606,2.407,1.229,5.223,1.866
		c2.816,0.637,4.748,1.193,5.796,1.669c1.523,0.703,2.648,1.593,3.375,2.67c0.726,1.078,1.089,2.319,1.089,3.724
		c0,1.394-0.398,2.706-1.196,3.938c-0.798,1.232-1.943,2.191-3.438,2.876s-3.176,1.026-5.045,1.026
		c-2.369,0-4.354-0.346-5.956-1.035c-1.602-0.69-2.857-1.729-3.768-3.117C1057.552,166.949,1057.072,165.381,1057.024,163.631z"/>
	<path fill="#58595B" d="M1080.992,162.56c0-3.513,0.976-6.114,2.929-7.805c1.631-1.404,3.619-2.107,5.964-2.107
		c2.607,0,4.738,0.854,6.394,2.563c1.655,1.708,2.482,4.068,2.482,7.08c0,2.441-0.366,4.36-1.099,5.76
		c-0.731,1.399-1.798,2.485-3.196,3.259c-1.399,0.774-2.926,1.161-4.581,1.161c-2.654,0-4.801-0.852-6.438-2.554
		S1080.992,165.762,1080.992,162.56z M1084.296,162.56c0,2.429,0.529,4.247,1.589,5.455c1.06,1.209,2.394,1.813,4,1.813
		c1.596,0,2.923-0.606,3.982-1.821c1.06-1.214,1.59-3.065,1.59-5.554c0-2.346-0.533-4.122-1.599-5.331
		c-1.065-1.208-2.39-1.813-3.974-1.813c-1.606,0-2.94,0.602-4,1.804C1084.825,158.315,1084.296,160.131,1084.296,162.56z"/>
	<path fill="#58595B" d="M1114.957,172.042v-2.786c-1.476,2.144-3.481,3.215-6.018,3.215c-1.119,0-2.164-0.215-3.135-0.643
		c-0.97-0.429-1.69-0.968-2.16-1.616c-0.471-0.649-0.801-1.444-0.991-2.385c-0.132-0.631-0.196-1.631-0.196-3v-11.751h3.214v10.519
		c0,1.679,0.065,2.811,0.196,3.394c0.203,0.846,0.631,1.509,1.286,1.991c0.654,0.482,1.465,0.723,2.429,0.723
		c0.965,0,1.869-0.246,2.715-0.741c0.845-0.493,1.443-1.166,1.795-2.018c0.351-0.851,0.526-2.086,0.526-3.705v-10.162h3.215v18.966
		H1114.957z"/>
	<path fill="#58595B" d="M1122.833,172.042v-18.966h2.894v2.875c0.737-1.345,1.419-2.231,2.045-2.66
		c0.625-0.429,1.313-0.644,2.063-0.644c1.083,0,2.185,0.346,3.304,1.036l-1.107,2.982c-0.786-0.465-1.571-0.696-2.357-0.696
		c-0.702,0-1.333,0.211-1.893,0.634c-0.561,0.423-0.959,1.009-1.197,1.759c-0.356,1.144-0.535,2.394-0.535,3.75v9.93H1122.833z"/>
	<path fill="#58595B" d="M1147.425,165.095l3.16,0.411c-0.345,2.179-1.229,3.884-2.651,5.116c-1.423,1.232-3.17,1.849-5.241,1.849
		c-2.596,0-4.683-0.849-6.26-2.545c-1.578-1.696-2.366-4.128-2.366-7.295c0-2.048,0.339-3.84,1.018-5.376
		c0.679-1.535,1.712-2.688,3.099-3.455c1.387-0.769,2.896-1.152,4.527-1.152c2.06,0,3.744,0.521,5.054,1.563
		c1.31,1.042,2.149,2.521,2.519,4.438l-3.126,0.481c-0.298-1.273-0.824-2.231-1.58-2.875c-0.756-0.643-1.67-0.964-2.741-0.964
		c-1.619,0-2.935,0.58-3.947,1.741c-1.012,1.16-1.518,2.997-1.518,5.509c0,2.548,0.488,4.399,1.465,5.555
		c0.976,1.154,2.25,1.731,3.821,1.731c1.262,0,2.315-0.387,3.161-1.16C1146.662,167.893,1147.198,166.702,1147.425,165.095z"/>
	<path fill="#58595B" d="M1166.318,165.935l3.322,0.41c-0.524,1.941-1.494,3.447-2.911,4.519s-3.227,1.607-5.429,1.607
		c-2.774,0-4.974-0.854-6.599-2.563c-1.625-1.709-2.438-4.104-2.438-7.188c0-3.19,0.821-5.667,2.464-7.429
		c1.644-1.762,3.774-2.644,6.394-2.644c2.536,0,4.607,0.863,6.215,2.59s2.41,4.155,2.41,7.286c0,0.19-0.006,0.477-0.018,0.857
		h-14.144c0.119,2.083,0.708,3.679,1.768,4.786s2.381,1.66,3.965,1.66c1.179,0,2.185-0.309,3.019-0.929
		C1165.17,168.28,1165.83,167.292,1166.318,165.935z M1155.765,160.737h10.59c-0.143-1.595-0.548-2.791-1.215-3.589
		c-1.023-1.238-2.351-1.857-3.982-1.857c-1.476,0-2.717,0.494-3.723,1.482C1156.428,157.762,1155.871,159.083,1155.765,160.737z"/>
</g>
</svg>
